<svg width="1080" height="1080" viewBox="0 0 1080 1080" fill="none" xmlns="http://www.w3.org/2000/svg">
  <defs>
    <linearGradient id="bg" x1="120" y1="48" x2="932" y2="1042" gradientUnits="userSpaceOnUse">
      <stop offset="0" stop-color="#08172D" />
      <stop offset="0.56" stop-color="#0B1F3A" />
      <stop offset="1" stop-color="#12335C" />
    </linearGradient>
    <radialGradient id="glowTop" cx="0" cy="0" r="1" gradientUnits="userSpaceOnUse" gradientTransform="translate(690 210) rotate(90) scale(292 358)">
      <stop stop-color="#46A8FF" stop-opacity="0.28" />
      <stop offset="1" stop-color="#46A8FF" stop-opacity="0" />
    </radialGradient>
    <radialGradient id="glowBottom" cx="0" cy="0" r="1" gradientUnits="userSpaceOnUse" gradientTransform="translate(328 884) rotate(90) scale(260 340)">
      <stop stop-color="#5CC9FF" stop-opacity="0.18" />
      <stop offset="1" stop-color="#5CC9FF" stop-opacity="0" />
    </radialGradient>
    <radialGradient id="nodeGlow" cx="0" cy="0" r="1" gradientUnits="userSpaceOnUse" gradientTransform="translate(540 642) rotate(90) scale(228)">
      <stop stop-color="#61C8FF" stop-opacity="0.22" />
      <stop offset="1" stop-color="#61C8FF" stop-opacity="0" />
    </radialGradient>
    <linearGradient id="line" x1="191" y1="651" x2="886" y2="651" gradientUnits="userSpaceOnUse">
      <stop stop-color="#255D99" stop-opacity="0.52" />
      <stop offset="0.52" stop-color="#7DDBFF" />
      <stop offset="1" stop-color="#2C6FB1" stop-opacity="0.52" />
    </linearGradient>
    <linearGradient id="chip" x1="0" y1="0" x2="232" y2="88" gradientUnits="userSpaceOnUse">
      <stop stop-color="#10284A" stop-opacity="0.88" />
      <stop offset="1" stop-color="#0D203A" stop-opacity="0.78" />
    </linearGradient>
    <linearGradient id="stackNode" x1="430" y1="516" x2="648" y2="760" gradientUnits="userSpaceOnUse">
      <stop stop-color="#133A67" />
      <stop offset="1" stop-color="#0A203D" />
    </linearGradient>
    <filter id="blurLarge" x="0" y="0" width="1080" height="1080" filterUnits="userSpaceOnUse" color-interpolation-filters="sRGB">
      <feGaussianBlur stdDeviation="52" />
    </filter>
    <filter id="softShadow" x="-80" y="-80" width="1240" height="1240" filterUnits="userSpaceOnUse" color-interpolation-filters="sRGB">
      <feDropShadow dx="0" dy="16" stdDeviation="28" flood-color="#02111F" flood-opacity="0.42" />
    </filter>
    <filter id="chipShadow" x="0" y="0" width="1080" height="1080" filterUnits="userSpaceOnUse" color-interpolation-filters="sRGB">
      <feDropShadow dx="0" dy="12" stdDeviation="20" flood-color="#041321" flood-opacity="0.35" />
    </filter>
    <marker id="arrow" markerWidth="12" markerHeight="12" refX="10" refY="6" orient="auto">
      <path d="M1 1L10 6L1 11" stroke="#8DD8FF" stroke-width="1.5" stroke-linecap="round" stroke-linejoin="round" />
    </marker>
    <mask id="stackauraMarkMask" maskUnits="userSpaceOnUse" x="0" y="0" width="100" height="100">
      <rect width="100" height="100" fill="black" />
      <g transform="translate(50 50) rotate(36) translate(-50 -50)">
        <rect x="7" y="35" width="86" height="27" rx="13.5" fill="white" />
        <rect x="40" y="11" width="57" height="19" rx="9.5" fill="white" />
        <rect x="10" y="74" width="58" height="19" rx="9.5" fill="white" />
        <ellipse cx="61" cy="40" rx="18.5" ry="8.4" fill="black" />
        <ellipse cx="40" cy="63" rx="18.5" ry="8.4" fill="black" />
      </g>
    </mask>
    <style>
      .label { font-family: Inter, "SF Pro Display", "Helvetica Neue", Arial, sans-serif; }
      .eyebrow { fill: #7FB7E8; font-size: 19px; font-weight: 600; letter-spacing: 0.22em; text-transform: uppercase; }
      .headline { fill: #F7FBFF; font-size: 56px; font-weight: 700; letter-spacing: -0.055em; }
      .body { fill: #B7CBE1; font-size: 27px; font-weight: 500; letter-spacing: -0.02em; }
      .small { fill: #89A7C8; font-size: 16px; font-weight: 600; letter-spacing: 0.16em; text-transform: uppercase; }
      .node-title { fill: #F7FBFF; font-size: 32px; font-weight: 700; letter-spacing: -0.04em; }
      .node-copy { fill: #AFC6E3; font-size: 18px; font-weight: 500; letter-spacing: -0.01em; }
      .chip-title { fill: #F7FBFF; font-size: 23px; font-weight: 650; letter-spacing: -0.03em; }
      .chip-copy { fill: #95B5D4; font-size: 15px; font-weight: 500; }
      .kpi-label { fill: #8AAED0; font-size: 11px; font-weight: 700; letter-spacing: 0.18em; text-transform: uppercase; }
      .kpi-value { fill: #F7FBFF; font-size: 28px; font-weight: 700; letter-spacing: -0.04em; }
      .kpi-meta { fill: #95B5D4; font-size: 12px; font-weight: 500; }
      .rail-value { fill: #D7EEFF; font-size: 13px; font-weight: 600; }
      .rail-meta { fill: #89A7C8; font-size: 12px; font-weight: 500; }
      .panel-title { fill: #F7FBFF; font-size: 20px; font-weight: 650; letter-spacing: -0.03em; }
      .panel-copy { fill: #8EAED0; font-size: 13px; font-weight: 500; }
      .panel-header { fill: #7DA4C7; font-size: 11px; font-weight: 700; letter-spacing: 0.16em; text-transform: uppercase; }
      .panel-row { fill: #F7FBFF; font-size: 15px; font-weight: 600; }
      .cta { fill: #EAF4FF; font-size: 26px; font-weight: 650; letter-spacing: -0.03em; }
    </style>
  </defs>

  <rect width="1080" height="1080" fill="url(#bg)" />

  <g opacity="0.9">
    <ellipse cx="690" cy="210" rx="248" ry="190" fill="url(#glowTop)" />
    <ellipse cx="332" cy="888" rx="240" ry="180" fill="url(#glowBottom)" />
  </g>

  <g opacity="0.14">
    <path d="M110 166C212 109 327 94 450 118" stroke="#9AC6EC" stroke-width="1.2" stroke-linecap="round" />
    <path d="M650 96C797 113 918 176 980 288" stroke="#9AC6EC" stroke-width="1.2" stroke-linecap="round" />
    <path d="M92 842C206 901 336 932 468 915" stroke="#9AC6EC" stroke-width="1.2" stroke-linecap="round" />
    <path d="M642 938C801 917 920 850 982 734" stroke="#9AC6EC" stroke-width="1.2" stroke-linecap="round" />
    <circle cx="164" cy="298" r="2.5" fill="#A3CCEF" />
    <circle cx="224" cy="824" r="2.5" fill="#A3CCEF" />
    <circle cx="878" cy="220" r="2.5" fill="#A3CCEF" />
    <circle cx="930" cy="788" r="2.5" fill="#A3CCEF" />
  </g>

  <g class="label">
    <rect x="390" y="64" width="300" height="62" rx="31" fill="rgba(255,255,255,0.06)" stroke="rgba(168,205,237,0.18)" />
    <circle cx="428" cy="95" r="17" fill="#133A67" stroke="#7DD3FC" stroke-width="1.2" />
    <g transform="translate(418.5 85.5) scale(0.19)">
      <rect width="100" height="100" fill="#ECF8FF" mask="url(#stackauraMarkMask)" />
    </g>
    <text x="458" y="103" fill="#F7FBFF" font-size="26" font-weight="700" letter-spacing="-0.04em">STACKAURA</text>
    <text class="eyebrow" x="540" y="176" text-anchor="middle">Merchant workspace visibility</text>
    <text class="headline" x="540" y="252" text-anchor="middle">See real payment activity,</text>
    <text class="headline" x="540" y="314" text-anchor="middle">routing, and recovery for</text>
    <text class="headline" x="540" y="376" text-anchor="middle">one merchant workspace.</text>
  </g>

  <g filter="url(#chipShadow)" class="label">
    <rect x="110" y="420" width="190" height="72" rx="24" fill="rgba(11,30,53,0.54)" stroke="rgba(167,219,255,0.16)" />
    <rect x="130" y="437" width="34" height="5" rx="2.5" fill="#79DEFF" />
    <text class="kpi-label" x="130" y="456">Total Volume</text>
    <text class="kpi-value" x="130" y="481">R245,430</text>

    <rect x="315" y="420" width="190" height="72" rx="24" fill="rgba(11,30,53,0.54)" stroke="rgba(167,219,255,0.16)" />
    <rect x="335" y="437" width="34" height="5" rx="2.5" fill="#79DEFF" />
    <text class="kpi-label" x="335" y="456">Successful Payments</text>
    <text class="kpi-value" x="335" y="481">1,285</text>

    <rect x="520" y="420" width="190" height="72" rx="24" fill="rgba(11,30,53,0.54)" stroke="rgba(167,219,255,0.16)" />
    <rect x="540" y="437" width="34" height="5" rx="2.5" fill="#FFB46A" />
    <text class="kpi-label" x="540" y="456">Failed Payments</text>
    <text class="kpi-value" x="540" y="481">38</text>

    <rect x="725" y="420" width="190" height="72" rx="24" fill="rgba(11,30,53,0.54)" stroke="rgba(167,219,255,0.16)" />
    <rect x="745" y="437" width="34" height="5" rx="2.5" fill="#79DEFF" />
    <text class="kpi-label" x="745" y="456">Recovery Rate</text>
    <text class="kpi-value" x="745" y="481">94.7%</text>
  </g>

  <g filter="url(#blurLarge)" opacity="0.28">
    <circle cx="540" cy="642" r="142" fill="url(#nodeGlow)" />
  </g>

  <g filter="url(#softShadow)">
    <circle cx="540" cy="642" r="124" fill="url(#stackNode)" stroke="rgba(167,219,255,0.26)" stroke-width="1.4" />
    <circle cx="540" cy="642" r="146" stroke="rgba(116,191,241,0.16)" stroke-width="1.2" />
    <circle cx="540" cy="642" r="165" stroke="rgba(116,191,241,0.08)" stroke-width="1" />
    <circle cx="540" cy="612" r="34" fill="rgba(97,200,255,0.12)" stroke="rgba(157,225,255,0.35)" />
    <g transform="translate(520 592) scale(0.4)">
      <rect width="100" height="100" fill="#F8FCFF" mask="url(#stackauraMarkMask)" />
    </g>
    <rect x="585" y="552" width="76" height="28" rx="14" fill="rgba(97,200,255,0.10)" stroke="rgba(157,225,255,0.30)" />
    <circle cx="605" cy="566" r="4.5" fill="#9CEBFF" />
    <text x="622" y="571" fill="#E8F8FF" font-size="12" font-weight="700" letter-spacing="0.12em">LIVE</text>
    <text class="node-title" x="540" y="692" text-anchor="middle">Stackaura Engine</text>
    <text class="node-copy" x="540" y="721" text-anchor="middle">Routing. Recovery. Visibility.</text>
  </g>

  <g filter="url(#chipShadow)" class="label">
    <rect x="84" y="572" width="186" height="184" rx="40" fill="url(#chip)" stroke="rgba(167,219,255,0.18)" />
    <rect x="126" y="606" width="102" height="72" rx="20" fill="rgba(255,255,255,0.04)" stroke="rgba(162,210,245,0.20)" />
    <path d="M141 642H214" stroke="#9FD8FF" stroke-width="5" stroke-linecap="round" />
    <path d="M151 631L177 613L204 631" stroke="#9FD8FF" stroke-width="4" stroke-linecap="round" stroke-linejoin="round" />
    <path d="M153 630V658" stroke="#9FD8FF" stroke-width="4" stroke-linecap="round" />
    <path d="M202 630V658" stroke="#9FD8FF" stroke-width="4" stroke-linecap="round" />
    <path d="M177.5 642V658" stroke="#9FD8FF" stroke-width="4" stroke-linecap="round" />
    <text x="177" y="704" fill="#F7FBFF" font-size="17" font-weight="650" text-anchor="middle">Merchant Workspace</text>
    <text x="177" y="730" fill="#D7EEFF" font-size="21" font-weight="650" text-anchor="middle">Acme Store</text>
    <circle cx="143" cy="748" r="5" fill="#97E9FF" />
    <text x="157" y="753" fill="#9ED2F2" font-size="14" font-weight="600">Status: Online</text>
  </g>

  <g>
    <path d="M270 650C340 650 366 650 416 646" stroke="url(#line)" stroke-width="3" stroke-linecap="round" marker-end="url(#arrow)" />
    <path d="M647 587C710 546 741 520 807 510" stroke="url(#line)" stroke-width="3" stroke-linecap="round" marker-end="url(#arrow)" />
    <path d="M664 653C734 650 767 650 830 659" stroke="url(#line)" stroke-width="3" stroke-linecap="round" marker-end="url(#arrow)" />
    <path d="M647 718C713 756 747 786 809 795" stroke="url(#line)" stroke-width="3" stroke-linecap="round" marker-end="url(#arrow)" />

    <circle cx="314" cy="650" r="6" fill="#C4EDFF" />
    <circle cx="348" cy="650" r="4.5" fill="#8ED7FF" />
    <circle cx="724" cy="556" r="4.5" fill="#A8E1FF" />
    <circle cx="760" cy="537" r="6" fill="#C4EDFF" />
    <circle cx="744" cy="650" r="4.5" fill="#8ED7FF" />
    <circle cx="785" cy="650" r="6" fill="#C4EDFF" />
    <circle cx="728" cy="765" r="4.5" fill="#8ED7FF" />
    <circle cx="768" cy="786" r="6" fill="#C4EDFF" />
  </g>

  <g class="label">
    <rect x="370" y="500" width="108" height="34" rx="17" fill="rgba(116,191,241,0.12)" stroke="rgba(157,225,255,0.18)" />
    <text x="424" y="522" fill="#D7F1FF" font-size="14" font-weight="600" text-anchor="middle">Auto route</text>

    <rect x="689" y="596" width="112" height="34" rx="17" fill="rgba(116,191,241,0.12)" stroke="rgba(157,225,255,0.18)" />
    <text x="745" y="618" fill="#D7F1FF" font-size="14" font-weight="600" text-anchor="middle">Recover</text>

    <rect x="670" y="721" width="118" height="34" rx="17" fill="rgba(116,191,241,0.12)" stroke="rgba(157,225,255,0.18)" />
    <text x="729" y="743" fill="#D7F1FF" font-size="14" font-weight="600" text-anchor="middle">Fallback</text>
  </g>

  <g filter="url(#chipShadow)" class="label">
    <rect x="770" y="500" width="226" height="94" rx="30" fill="url(#chip)" stroke="rgba(167,219,255,0.18)" />
    <rect x="800" y="526" width="28" height="10" rx="5" fill="#15A9DB" />
    <rect x="800" y="541" width="28" height="10" rx="5" fill="#15A9DB" opacity="0.82" />
    <rect x="800" y="556" width="18" height="10" rx="5" fill="#15A9DB" opacity="0.72" />
    <text class="chip-title" x="846" y="538">Paystack</text>
    <rect x="907" y="515" width="66" height="22" rx="11" fill="rgba(97,200,255,0.10)" stroke="rgba(157,225,255,0.22)" />
    <text x="940" y="529" fill="#DFF4FF" font-size="11" font-weight="700" text-anchor="middle">PRIMARY</text>
    <text class="rail-value" x="846" y="560">Success rate: 98.5%</text>
    <text class="rail-meta" x="846" y="579">Volume: R156,300</text>
    <circle cx="846" cy="592" r="4.5" fill="#97E9FF" />
    <text class="rail-meta" x="857" y="597">Status: Online</text>

    <rect x="806" y="624" width="198" height="94" rx="30" fill="url(#chip)" stroke="rgba(167,219,255,0.18)" />
    <circle cx="842" cy="663" r="17" fill="rgba(97,200,255,0.12)" stroke="rgba(157,225,255,0.26)" />
    <path d="M833 663C833 656.8 838 651.8 844.2 651.8C848 651.8 851.4 653.8 853.5 656.9L848.5 659.8C847.4 658.2 845.9 657.3 844.2 657.3C841 657.3 838.5 659.9 838.5 663C838.5 666.2 841 668.7 844.2 668.7C845.9 668.7 847.4 667.8 848.5 666.2L853.5 669.1C851.4 672.2 848 674.2 844.2 674.2C838 674.2 833 669.2 833 663Z" fill="#F8FCFF" />
    <text class="chip-title" x="874" y="668">Ozow</text>
    <rect x="927" y="639" width="58" height="22" rx="11" fill="rgba(97,200,255,0.10)" stroke="rgba(157,225,255,0.22)" />
    <text x="956" y="653" fill="#DFF4FF" font-size="11" font-weight="700" text-anchor="middle">RECOVERY</text>
    <text class="rail-value" x="844" y="689">Success rate: 92.1%</text>
    <text class="rail-meta" x="844" y="707">Volume: R67,850 • Online</text>

    <rect x="754" y="748" width="232" height="94" rx="30" fill="url(#chip)" stroke="rgba(167,219,255,0.18)" />
    <circle cx="799" cy="787" r="17" fill="rgba(255,255,255,0.04)" stroke="rgba(157,225,255,0.22)" />
    <path d="M791 787L796 793L808 781" stroke="#DDF4FF" stroke-width="3" stroke-linecap="round" stroke-linejoin="round" />
    <text class="chip-title" x="831" y="792">Yoco</text>
    <rect x="891" y="763" width="72" height="22" rx="11" fill="rgba(97,200,255,0.10)" stroke="rgba(157,225,255,0.22)" />
    <text x="927" y="777" fill="#DFF4FF" font-size="11" font-weight="700" text-anchor="middle">FALLBACK</text>
    <text class="rail-value" x="799" y="813">Success rate: 89.4%</text>
    <text class="rail-meta" x="799" y="831">Volume: R21,280 • Online</text>
  </g>

  <g filter="url(#chipShadow)" class="label">
    <rect x="150" y="884" width="780" height="150" rx="34" fill="rgba(11,30,53,0.56)" stroke="rgba(167,219,255,0.18)" />
    <text class="panel-title" x="188" y="922">Live Activity</text>
    <text class="panel-copy" x="840" y="922" text-anchor="end">Updated just now</text>

    <text class="panel-header" x="188" y="952">Reference</text>
    <text class="panel-header" x="438" y="952">Amount</text>
    <text class="panel-header" x="584" y="952">Route</text>
    <text class="panel-header" x="816" y="952">Status</text>

    <line x1="182" y1="964" x2="900" y2="964" stroke="rgba(167,219,255,0.10)" />
    <line x1="182" y1="989" x2="900" y2="989" stroke="rgba(167,219,255,0.08)" />
    <line x1="182" y1="1014" x2="900" y2="1014" stroke="rgba(167,219,255,0.08)" />

    <text class="panel-row" x="188" y="981">STK-24091</text>
    <text class="panel-row" x="438" y="981">R8,420</text>
    <text class="panel-row" x="584" y="981">Paystack</text>
    <rect x="780" y="966" width="98" height="22" rx="11" fill="rgba(96,223,255,0.14)" stroke="rgba(157,225,255,0.20)" />
    <text x="829" y="981" fill="#DFF8FF" font-size="12" font-weight="700" text-anchor="middle">SUCCESS</text>

    <text class="panel-row" x="188" y="1006">STK-24088</text>
    <text class="panel-row" x="438" y="1006">R1,250</text>
    <text class="panel-row" x="584" y="1006">Paystack → Ozow</text>
    <rect x="769" y="991" width="109" height="22" rx="11" fill="rgba(96,223,255,0.14)" stroke="rgba(157,225,255,0.20)" />
    <text x="824" y="1006" fill="#DFF8FF" font-size="12" font-weight="700" text-anchor="middle">RECOVERED</text>

    <text class="panel-row" x="188" y="1031">STK-24082</text>
    <text class="panel-row" x="438" y="1031">R3,980</text>
    <text class="panel-row" x="584" y="1031">Paystack</text>
    <rect x="793" y="1016" width="85" height="22" rx="11" fill="rgba(255,180,106,0.12)" stroke="rgba(255,196,138,0.20)" />
    <text x="835" y="1031" fill="#FFDAB1" font-size="12" font-weight="700" text-anchor="middle">FAILED</text>
  </g>
</svg>
