<svg width="1080" height="1080" viewBox="0 0 1080 1080" fill="none" xmlns="http://www.w3.org/2000/svg">
  <defs>
    <linearGradient id="bg" x1="120" y1="48" x2="932" y2="1042" gradientUnits="userSpaceOnUse">
      <stop offset="0" stop-color="#08172D" />
      <stop offset="0.56" stop-color="#0B1F3A" />
      <stop offset="1" stop-color="#12335C" />
    </linearGradient>
    <radialGradient id="glowTop" cx="0" cy="0" r="1" gradientUnits="userSpaceOnUse" gradientTransform="translate(690 210) rotate(90) scale(292 358)">
      <stop stop-color="#46A8FF" stop-opacity="0.28" />
      <stop offset="1" stop-color="#46A8FF" stop-opacity="0" />
    </radialGradient>
    <radialGradient id="glowBottom" cx="0" cy="0" r="1" gradientUnits="userSpaceOnUse" gradientTransform="translate(328 884) rotate(90) scale(260 340)">
      <stop stop-color="#5CC9FF" stop-opacity="0.18" />
      <stop offset="1" stop-color="#5CC9FF" stop-opacity="0" />
    </radialGradient>
    <radialGradient id="nodeGlow" cx="0" cy="0" r="1" gradientUnits="userSpaceOnUse" gradientTransform="translate(540 642) rotate(90) scale(228)">
      <stop stop-color="#61C8FF" stop-opacity="0.22" />
      <stop offset="1" stop-color="#61C8FF" stop-opacity="0" />
    </radialGradient>
    <linearGradient id="line" x1="191" y1="651" x2="886" y2="651" gradientUnits="userSpaceOnUse">
      <stop stop-color="#255D99" stop-opacity="0.52" />
      <stop offset="0.52" stop-color="#7DDBFF" />
      <stop offset="1" stop-color="#2C6FB1" stop-opacity="0.52" />
    </linearGradient>
    <linearGradient id="chip" x1="0" y1="0" x2="232" y2="88" gradientUnits="userSpaceOnUse">
      <stop stop-color="#10284A" stop-opacity="0.88" />
      <stop offset="1" stop-color="#0D203A" stop-opacity="0.78" />
    </linearGradient>
    <linearGradient id="stackNode" x1="430" y1="516" x2="648" y2="760" gradientUnits="userSpaceOnUse">
      <stop stop-color="#133A67" />
      <stop offset="1" stop-color="#0A203D" />
    </linearGradient>
    <filter id="blurLarge" x="0" y="0" width="1080" height="1080" filterUnits="userSpaceOnUse" color-interpolation-filters="sRGB">
      <feGaussianBlur stdDeviation="52" />
    </filter>
    <filter id="softShadow" x="-80" y="-80" width="1240" height="1240" filterUnits="userSpaceOnUse" color-interpolation-filters="sRGB">
      <feDropShadow dx="0" dy="16" stdDeviation="28" flood-color="#02111F" flood-opacity="0.42" />
    </filter>
    <filter id="chipShadow" x="0" y="0" width="1080" height="1080" filterUnits="userSpaceOnUse" color-interpolation-filters="sRGB">
      <feDropShadow dx="0" dy="12" stdDeviation="20" flood-color="#041321" flood-opacity="0.35" />
    </filter>
    <marker id="arrow" markerWidth="12" markerHeight="12" refX="10" refY="6" orient="auto">
      <path d="M1 1L10 6L1 11" stroke="#8DD8FF" stroke-width="1.5" stroke-linecap="round" stroke-linejoin="round" />
    </marker>
    <mask id="stackauraMarkMask" maskUnits="userSpaceOnUse" x="0" y="0" width="100" height="100">
      <rect width="100" height="100" fill="black" />
      <g transform="translate(50 50) rotate(36) translate(-50 -50)">
        <rect x="7" y="35" width="86" height="27" rx="13.5" fill="white" />
        <rect x="40" y="11" width="57" height="19" rx="9.5" fill="white" />
        <rect x="10" y="74" width="58" height="19" rx="9.5" fill="white" />
        <ellipse cx="61" cy="40" rx="18.5" ry="8.4" fill="black" />
        <ellipse cx="40" cy="63" rx="18.5" ry="8.4" fill="black" />
      </g>
    </mask>
    <style>
      .label { font-family: Inter, "SF Pro Display", "Helvetica Neue", Arial, sans-serif; }
      .eyebrow { fill: #7FB7E8; font-size: 19px; font-weight: 600; letter-spacing: 0.22em; text-transform: uppercase; }
      .headline { fill: #F7FBFF; font-size: 72px; font-weight: 700; letter-spacing: -0.06em; }
      .body { fill: #B7CBE1; font-size: 27px; font-weight: 500; letter-spacing: -0.02em; }
      .small { fill: #89A7C8; font-size: 16px; font-weight: 600; letter-spacing: 0.16em; text-transform: uppercase; }
      .node-title { fill: #F7FBFF; font-size: 34px; font-weight: 700; letter-spacing: -0.04em; }
      .node-copy { fill: #AFC6E3; font-size: 18px; font-weight: 500; letter-spacing: -0.01em; }
      .chip-title { fill: #F7FBFF; font-size: 23px; font-weight: 650; letter-spacing: -0.03em; }
      .chip-copy { fill: #95B5D4; font-size: 15px; font-weight: 500; }
      .cta { fill: #EAF4FF; font-size: 26px; font-weight: 650; letter-spacing: -0.03em; }
    </style>
  </defs>

  <rect width="1080" height="1080" fill="url(#bg)" />

  <g opacity="0.9">
    <ellipse cx="690" cy="210" rx="248" ry="190" fill="url(#glowTop)" />
    <ellipse cx="332" cy="888" rx="240" ry="180" fill="url(#glowBottom)" />
  </g>

  <g opacity="0.14">
    <path d="M110 166C212 109 327 94 450 118" stroke="#9AC6EC" stroke-width="1.2" stroke-linecap="round" />
    <path d="M650 96C797 113 918 176 980 288" stroke="#9AC6EC" stroke-width="1.2" stroke-linecap="round" />
    <path d="M92 842C206 901 336 932 468 915" stroke="#9AC6EC" stroke-width="1.2" stroke-linecap="round" />
    <path d="M642 938C801 917 920 850 982 734" stroke="#9AC6EC" stroke-width="1.2" stroke-linecap="round" />
    <circle cx="164" cy="298" r="2.5" fill="#A3CCEF" />
    <circle cx="224" cy="824" r="2.5" fill="#A3CCEF" />
    <circle cx="878" cy="220" r="2.5" fill="#A3CCEF" />
    <circle cx="930" cy="788" r="2.5" fill="#A3CCEF" />
  </g>

  <g class="label">
    <rect x="390" y="64" width="300" height="62" rx="31" fill="rgba(255,255,255,0.06)" stroke="rgba(168,205,237,0.18)" />
    <circle cx="428" cy="95" r="17" fill="#133A67" stroke="#7DD3FC" stroke-width="1.2" />
    <g transform="translate(418.5 85.5) scale(0.19)">
      <rect width="100" height="100" fill="#ECF8FF" mask="url(#stackauraMarkMask)" />
    </g>
    <text x="458" y="103" fill="#F7FBFF" font-size="26" font-weight="700" letter-spacing="-0.04em">STACKAURA</text>
    <text class="eyebrow" x="540" y="176" text-anchor="middle">Payment orchestration infrastructure</text>
    <text class="headline" x="540" y="264" text-anchor="middle">One Integration.</text>
    <text class="headline" x="540" y="340" text-anchor="middle">Multiple Payment Rails.</text>
    <text class="body" x="540" y="403" text-anchor="middle">Route, recover, and scale payments across</text>
    <text class="body" x="540" y="438" text-anchor="middle">multiple gateways automatically.</text>
  </g>

  <g filter="url(#blurLarge)" opacity="0.28">
    <circle cx="540" cy="642" r="142" fill="url(#nodeGlow)" />
  </g>

  <g class="label">
    <text class="small" x="175" y="482">Merchant</text>
    <text class="small" x="784" y="462">Connected rails</text>
  </g>

  <g filter="url(#softShadow)">
    <circle cx="540" cy="642" r="124" fill="url(#stackNode)" stroke="rgba(167,219,255,0.26)" stroke-width="1.4" />
    <circle cx="540" cy="642" r="146" stroke="rgba(116,191,241,0.16)" stroke-width="1.2" />
    <circle cx="540" cy="642" r="165" stroke="rgba(116,191,241,0.08)" stroke-width="1" />
    <circle cx="540" cy="612" r="34" fill="rgba(97,200,255,0.12)" stroke="rgba(157,225,255,0.35)" />
    <g transform="translate(520 592) scale(0.4)">
      <rect width="100" height="100" fill="#F8FCFF" mask="url(#stackauraMarkMask)" />
    </g>
    <text class="node-title" x="540" y="694" text-anchor="middle">Stackaura</text>
    <text class="node-copy" x="540" y="724" text-anchor="middle">Route. Recover. Scale.</text>
  </g>

  <g filter="url(#chipShadow)">
    <rect x="92" y="565" width="170" height="170" rx="40" fill="url(#chip)" stroke="rgba(167,219,255,0.18)" />
    <rect x="132" y="601" width="90" height="68" rx="18" fill="rgba(255,255,255,0.04)" stroke="rgba(162,210,245,0.20)" />
    <path d="M144 633H211" stroke="#9FD8FF" stroke-width="5" stroke-linecap="round" />
    <path d="M152 624L178 607L204 624" stroke="#9FD8FF" stroke-width="4" stroke-linecap="round" stroke-linejoin="round" />
    <path d="M154 623V653" stroke="#9FD8FF" stroke-width="4" stroke-linecap="round" />
    <path d="M201 623V653" stroke="#9FD8FF" stroke-width="4" stroke-linecap="round" />
    <path d="M177.5 637V653" stroke="#9FD8FF" stroke-width="4" stroke-linecap="round" />
    <text class="chip-title" x="177" y="695" text-anchor="middle">Merchant</text>
    <text class="chip-copy" x="177" y="722" text-anchor="middle">One checkout integration</text>
  </g>

  <g>
    <path d="M262 650C340 650 366 650 416 646" stroke="url(#line)" stroke-width="3" stroke-linecap="round" marker-end="url(#arrow)" />
    <path d="M647 587C710 546 741 520 809 500" stroke="url(#line)" stroke-width="3" stroke-linecap="round" marker-end="url(#arrow)" />
    <path d="M664 653C734 650 767 650 834 650" stroke="url(#line)" stroke-width="3" stroke-linecap="round" marker-end="url(#arrow)" />
    <path d="M647 718C713 756 747 786 813 805" stroke="url(#line)" stroke-width="3" stroke-linecap="round" marker-end="url(#arrow)" />

    <circle cx="314" cy="650" r="6" fill="#C4EDFF" />
    <circle cx="348" cy="650" r="4.5" fill="#8ED7FF" />
    <circle cx="724" cy="556" r="4.5" fill="#A8E1FF" />
    <circle cx="760" cy="537" r="6" fill="#C4EDFF" />
    <circle cx="744" cy="650" r="4.5" fill="#8ED7FF" />
    <circle cx="785" cy="650" r="6" fill="#C4EDFF" />
    <circle cx="728" cy="765" r="4.5" fill="#8ED7FF" />
    <circle cx="768" cy="786" r="6" fill="#C4EDFF" />
  </g>

  <g class="label">
    <rect x="370" y="498" width="108" height="34" rx="17" fill="rgba(116,191,241,0.12)" stroke="rgba(157,225,255,0.18)" />
    <text x="424" y="520" fill="#D7F1FF" font-size="14" font-weight="600" text-anchor="middle">Auto route</text>

    <rect x="689" y="596" width="112" height="34" rx="17" fill="rgba(116,191,241,0.12)" stroke="rgba(157,225,255,0.18)" />
    <text x="745" y="618" fill="#D7F1FF" font-size="14" font-weight="600" text-anchor="middle">Recover</text>

    <rect x="670" y="721" width="118" height="34" rx="17" fill="rgba(116,191,241,0.12)" stroke="rgba(157,225,255,0.18)" />
    <text x="729" y="743" fill="#D7F1FF" font-size="14" font-weight="600" text-anchor="middle">Fallback</text>
  </g>

  <g filter="url(#chipShadow)" class="label">
    <rect x="772" y="458" width="214" height="84" rx="28" fill="url(#chip)" stroke="rgba(167,219,255,0.18)" />
    <rect x="804" y="485" width="28" height="10" rx="5" fill="#15A9DB" />
    <rect x="804" y="500" width="28" height="10" rx="5" fill="#15A9DB" opacity="0.82" />
    <rect x="804" y="515" width="18" height="10" rx="5" fill="#15A9DB" opacity="0.72" />
    <text class="chip-title" x="850" y="511">Paystack</text>
    <text class="chip-copy" x="850" y="533">Primary rail available</text>

    <rect x="808" y="606" width="198" height="84" rx="28" fill="url(#chip)" stroke="rgba(167,219,255,0.18)" />
    <circle cx="845" cy="648" r="17" fill="rgba(97,200,255,0.12)" stroke="rgba(157,225,255,0.26)" />
    <path d="M836 648C836 641.8 841 636.8 847.2 636.8C851 636.8 854.4 638.8 856.5 641.9L851.5 644.8C850.4 643.2 848.9 642.3 847.2 642.3C844 642.3 841.5 644.9 841.5 648C841.5 651.2 844 653.7 847.2 653.7C848.9 653.7 850.4 652.8 851.5 651.2L856.5 654.1C854.4 657.2 851 659.2 847.2 659.2C841 659.2 836 654.2 836 648Z" fill="#F8FCFF" />
    <text class="chip-title" x="877" y="653">Ozow</text>
    <text class="chip-copy" x="877" y="675">Instant bank routing rail</text>

    <rect x="760" y="754" width="226" height="84" rx="28" fill="url(#chip)" stroke="rgba(167,219,255,0.18)" />
    <circle cx="805" cy="796" r="17" fill="rgba(255,255,255,0.04)" stroke="rgba(157,225,255,0.22)" />
    <path d="M797 796L802 802L814 790" stroke="#DDF4FF" stroke-width="3" stroke-linecap="round" stroke-linejoin="round" />
    <text class="chip-title" x="837" y="801">Yoco</text>
    <text class="chip-copy" x="837" y="823">Merchant acceptance rail</text>
  </g>

  <g class="label">
    <text class="cta" x="540" y="966" text-anchor="middle">Start accepting payments smarter</text>
    <text x="540" y="1000" fill="#7EA4C7" font-size="19" font-weight="500" text-anchor="middle">stackaura.co.za</text>
  </g>
</svg>
