<svg width="136" height="32" viewBox="0 0 136 32" fill="none" xmlns="http://www.w3.org/2000/svg">
  <path
    d="M28.2 15.96C28.2 22.13 23.34 27 17.12 27C10.87 27 6 22.13 6 15.96C6 9.83 10.87 4.96 17.12 4.96C20.86 4.96 24.24 6.73 26.36 9.53L21.48 12.54C20.42 11.23 18.87 10.38 17.12 10.38C14.02 10.38 11.56 12.83 11.56 15.96C11.56 19.12 14.02 21.57 17.12 21.57C19.03 21.57 20.72 20.66 21.77 19.22L26.57 22.43C24.4 25.26 20.96 27 17.12 27C23.34 27 28.2 22.13 28.2 15.96Z"
    fill="#20C997"
  />
  <text
    x="39"
    y="22"
    fill="#F8FAFC"
    font-family="Inter, Arial, sans-serif"
    font-size="19"
    font-weight="700"
    letter-spacing="-0.03em"
  >
    Ozow
  </text>
</svg>
